<svg width="308" height="64" viewBox="0 0 308 64" fill="none" xmlns="http://www.w3.org/2000/svg">
<rect width="307.466" height="64.0026" rx="12.7979" fill="#0A1825"/>
<path d="M17.0226 36.5V27.1924H20.3402C21.0643 27.1924 21.6642 27.3242 22.1399 27.5878C22.6156 27.8514 22.9716 28.212 23.2079 28.6695C23.4442 29.1239 23.5624 29.636 23.5624 30.2056C23.5624 30.7782 23.4427 31.2933 23.2034 31.7508C22.967 32.2053 22.6095 32.5658 22.1308 32.8324C21.6551 33.096 21.0567 33.2278 20.3356 33.2278H18.0542V32.0371H20.2084C20.6659 32.0371 21.037 31.9583 21.3219 31.8008C21.6067 31.6402 21.8157 31.422 21.949 31.1463C22.0823 30.8706 22.149 30.557 22.149 30.2056C22.149 29.8541 22.0823 29.5421 21.949 29.2694C21.8157 28.9967 21.6051 28.7831 21.3173 28.6286C21.0325 28.474 20.6568 28.3968 20.1902 28.3968H18.4269V36.5H17.0226ZM34.4456 31.8462C34.4456 32.84 34.2638 33.6944 33.9002 34.4094C33.5366 35.1214 33.0382 35.6698 32.405 36.0546C31.7748 36.4364 31.0582 36.6273 30.2553 36.6273C29.4494 36.6273 28.7298 36.4364 28.0966 36.0546C27.4664 35.6698 26.9695 35.1199 26.6059 34.4049C26.2424 33.6899 26.0606 32.837 26.0606 31.8462C26.0606 30.8524 26.2424 29.9996 26.6059 29.2876C26.9695 28.5725 27.4664 28.0241 28.0966 27.6424C28.7298 27.2576 29.4494 27.0652 30.2553 27.0652C31.0582 27.0652 31.7748 27.2576 32.405 27.6424C33.0382 28.0241 33.5366 28.5725 33.9002 29.2876C34.2638 29.9996 34.4456 30.8524 34.4456 31.8462ZM33.0549 31.8462C33.0549 31.0888 32.9322 30.451 32.6868 29.9329C32.4444 29.4118 32.1111 29.0179 31.6869 28.7513C31.2658 28.4816 30.7886 28.3468 30.2553 28.3468C29.7191 28.3468 29.2404 28.4816 28.8192 28.7513C28.3981 29.0179 28.0648 29.4118 27.8194 29.9329C27.577 30.451 27.4558 31.0888 27.4558 31.8462C27.4558 32.6037 27.577 33.243 27.8194 33.7641C28.0648 34.2822 28.3981 34.6761 28.8192 34.9457C29.2404 35.2123 29.7191 35.3456 30.2553 35.3456C30.7886 35.3456 31.2658 35.2123 31.6869 34.9457C32.1111 34.6761 32.4444 34.2822 32.6868 33.7641C32.9322 33.243 33.0549 32.6037 33.0549 31.8462ZM39.0582 36.5L36.4768 27.1924H37.9538L39.7671 34.4003H39.8535L41.7395 27.1924H43.2029L45.089 34.4049H45.1753L46.9841 27.1924H48.4657L45.8798 36.5H44.4664L42.5076 29.5284H42.4349L40.4761 36.5H39.0582ZM50.898 36.5V27.1924H56.7334V28.4013H52.3023V31.2372H56.4289V32.4416H52.3023V35.2911H56.7879V36.5H50.898ZM59.761 36.5V27.1924H63.0787C63.7998 27.1924 64.3981 27.3167 64.8738 27.5651C65.3525 27.8136 65.71 28.1574 65.9464 28.5968C66.1827 29.033 66.3009 29.5375 66.3009 30.1101C66.3009 30.6797 66.1812 31.1812 65.9418 31.6144C65.7055 32.0447 65.348 32.3795 64.8693 32.6188C64.3936 32.8582 63.7952 32.9779 63.0741 32.9779H60.5609V31.769H62.9469C63.4013 31.769 63.771 31.7038 64.0558 31.5735C64.3436 31.4433 64.5542 31.2539 64.6875 31.0054C64.8208 30.757 64.8875 30.4586 64.8875 30.1101C64.8875 29.7587 64.8193 29.4542 64.6829 29.1967C64.5496 28.9391 64.3391 28.7422 64.0512 28.6058C63.7664 28.4665 63.3922 28.3968 62.9287 28.3968H61.1653V36.5H59.761ZM64.3557 32.3007L66.6553 36.5H65.0556L62.8014 32.3007H64.3557ZM69.1615 36.5V27.1924H74.9969V28.4013H70.5658V31.2372H74.6924V32.4416H70.5658V35.2911H75.0514V36.5H69.1615ZM81.0377 36.5H78.0245V27.1924H81.1331C82.0451 27.1924 82.8283 27.3788 83.4827 27.7514C84.1371 28.1211 84.6386 28.6528 84.987 29.3466C85.3385 30.0374 85.5142 30.8661 85.5142 31.8326C85.5142 32.8021 85.3369 33.6353 84.9825 34.3322C84.631 35.029 84.122 35.5653 83.4554 35.941C82.7889 36.3137 81.983 36.5 81.0377 36.5ZM79.4288 35.2729H80.9604C81.6694 35.2729 82.2587 35.1396 82.7283 34.873C83.1979 34.6033 83.5494 34.214 83.7827 33.705C84.016 33.193 84.1326 32.5688 84.1326 31.8326C84.1326 31.1024 84.016 30.4828 83.7827 29.9738C83.5524 29.4648 83.2085 29.0785 82.751 28.8149C82.2935 28.5513 81.7254 28.4195 81.0467 28.4195H79.4288V35.2729ZM92.9511 36.5V27.1924H96.3596C97.0201 27.1924 97.567 27.3015 98.0002 27.5197C98.4335 27.7348 98.7577 28.0272 98.9728 28.3968C99.1879 28.7634 99.2955 29.177 99.2955 29.6375C99.2955 30.0253 99.2243 30.3525 99.0819 30.6191C98.9395 30.8827 98.7486 31.0948 98.5092 31.2554C98.2729 31.413 98.0124 31.5281 97.7276 31.6008V31.6917C98.0366 31.7068 98.3381 31.8068 98.6319 31.9917C98.9289 32.1734 99.1743 32.4325 99.3682 32.7688C99.5621 33.1051 99.6591 33.5141 99.6591 33.9959C99.6591 34.4715 99.5469 34.8987 99.3227 35.2775C99.1016 35.6532 98.7592 35.9516 98.2956 36.1728C97.8321 36.3909 97.2398 36.5 96.5187 36.5H92.9511ZM94.3554 35.2957H96.3823C97.0549 35.2957 97.5367 35.1654 97.8275 34.9048C98.1184 34.6442 98.2638 34.3185 98.2638 33.9277C98.2638 33.6338 98.1896 33.3642 98.0411 33.1187C97.8927 32.8733 97.6806 32.6779 97.4049 32.5325C97.1322 32.387 96.808 32.3143 96.4323 32.3143H94.3554V35.2957ZM94.3554 31.2191H96.2369C96.552 31.2191 96.8353 31.1585 97.0867 31.0373C97.3413 30.9161 97.5427 30.7464 97.6912 30.5283C97.8427 30.3071 97.9184 30.0465 97.9184 29.7466C97.9184 29.3618 97.7836 29.0391 97.5139 28.7785C97.2443 28.518 96.8307 28.3877 96.2732 28.3877H94.3554V31.2191ZM101.758 27.1924H103.354L105.785 31.4236H105.885L108.316 27.1924H109.912L106.535 32.8461V36.5H105.135V32.8461L101.758 27.1924Z" fill="white"/>
<path d="M259.268 19.5373C259.268 18.2714 260.291 17.2476 261.526 17.2476C262.762 17.2476 263.815 18.2714 263.815 19.5373C263.815 20.8032 262.792 21.7973 261.526 21.7973C260.261 21.7973 259.268 20.8032 259.268 19.5373Z" fill="white"/>
<path d="M288.229 20.2368V24.9651H291.432V28.234H288.229V35.4047C288.229 36.7711 288.831 37.3407 290.197 37.3407C290.703 37.3407 291.306 37.2439 291.466 37.2141V40.2596C291.243 40.3564 290.547 40.6096 289.215 40.6096C286.361 40.6096 284.586 38.897 284.586 36.0078V28.234H281.731V24.9651H282.528H284.902V22.6345C284.902 22.6084 284.902 22.5786 284.902 22.5526V20.2368H288.232H288.229Z" fill="white"/>
<path d="M162.473 36.7755C163.18 38.0004 164.144 38.9759 165.368 39.7019C166.611 40.4093 168.007 40.763 169.555 40.763C170.682 40.763 171.724 40.5731 172.68 40.1896C173.637 39.7875 174.459 39.2439 175.147 38.5552C175.836 37.8478 176.331 37.0548 176.64 36.1761L173.343 34.6832C173.056 35.4873 172.58 36.1277 171.91 36.6043C171.24 37.0808 170.459 37.3228 169.558 37.3228C168.736 37.3228 167.999 37.1218 167.352 36.7197C166.723 36.3176 166.224 35.7629 165.86 35.0555C165.495 34.3481 165.316 33.5364 165.316 32.6168C165.316 31.6972 165.499 30.8856 165.86 30.1782C166.224 29.4708 166.719 28.9161 167.352 28.514C168.003 28.1119 168.736 27.9108 169.558 27.9108C170.436 27.9108 171.21 28.1491 171.88 28.6294C172.569 29.106 173.056 29.7389 173.343 30.5207L176.64 29.0873C176.334 28.1491 175.828 27.3487 175.121 26.6785C174.433 25.9897 173.611 25.4536 172.654 25.0738C171.698 24.6717 170.667 24.4707 169.558 24.4707C168.01 24.4707 166.615 24.8244 165.372 25.5318C164.148 26.2392 163.184 27.2035 162.477 28.4284C161.77 29.6533 161.417 31.0382 161.417 32.5871C161.417 34.1359 161.77 35.532 162.477 36.7755H162.473Z" fill="white"/>
<path d="M182.199 24.8171H178.671V40.4206H182.426V31.7309C182.426 30.5469 182.75 29.6273 183.401 28.9758C184.052 28.3056 184.912 27.9705 185.98 27.9705H187.327V24.6421H186.408C185.317 24.6421 184.383 24.8729 183.598 25.3309C183.01 25.6846 182.545 26.243 182.195 27.01V24.8134L182.199 24.8171Z" fill="white"/>
<path fill-rule="evenodd" clip-rule="evenodd" d="M196.102 24.4888C200.731 24.4888 204.128 27.9475 204.128 32.6759C204.128 37.4042 200.735 40.8964 196.102 40.8964C191.469 40.8964 188.109 37.4377 188.109 32.6759C188.109 27.914 191.503 24.4888 196.102 24.4888ZM196.102 37.5941C198.387 37.5941 200.415 35.9112 200.415 32.6759C200.415 29.4405 198.383 27.8209 196.102 27.8209C193.821 27.8209 191.789 29.4703 191.789 32.6759C191.789 35.8814 193.851 37.5941 196.102 37.5941Z" fill="white"/>
<path d="M208.563 35.3419L205.359 36.2317C205.549 37.9778 207.261 40.8968 211.734 40.8968C215.667 40.8968 217.568 38.2943 217.568 35.945C217.568 33.5958 216.046 31.8831 213.129 31.2465L210.781 30.7699C209.828 30.5801 209.226 29.9769 209.226 29.1504C209.226 28.1973 210.145 27.3745 211.447 27.3745C213.509 27.3745 214.175 28.8041 214.301 29.6902L217.408 28.8004C217.155 27.2777 215.76 24.4854 211.447 24.4854C208.243 24.4854 205.769 26.7713 205.769 29.4669C205.769 31.5927 207.198 33.3687 209.925 33.9718L212.21 34.4781C213.445 34.7313 214.018 35.368 214.018 36.1908C214.018 37.1439 213.226 37.9667 211.704 37.9667C209.739 37.9667 208.69 36.7306 208.563 35.3344V35.3419Z" fill="white"/>
<path d="M218.804 36.2316L222.008 35.3418C222.134 36.7379 223.18 37.974 225.148 37.974C226.67 37.974 227.463 37.1475 227.463 36.1981C227.463 35.3716 226.893 34.7386 225.654 34.4855L223.37 33.9791C220.642 33.376 219.213 31.6001 219.213 29.4742C219.213 26.7749 221.688 24.4927 224.891 24.4927C229.204 24.4927 230.6 27.285 230.853 28.8077L227.746 29.6976C227.619 28.8077 226.953 27.3818 224.891 27.3818C223.593 27.3818 222.67 28.2083 222.67 29.1577C222.67 29.9842 223.273 30.5874 224.225 30.7773L226.573 31.2538C229.491 31.8867 231.013 33.6664 231.013 35.9524C231.013 38.2383 229.111 40.9041 225.178 40.9041C220.705 40.9041 218.993 37.9852 218.804 36.239V36.2316Z" fill="white"/>
<path d="M236.933 24.8168H233.405V40.4203H237.16V31.2689C237.16 30.5802 237.283 29.9882 237.532 29.4893C237.781 28.9904 238.135 28.6107 238.592 28.3426C239.05 28.0559 239.579 27.9107 240.17 27.9107C240.762 27.9107 241.309 28.0559 241.748 28.3426C242.206 28.6107 242.559 28.9941 242.809 29.4893C243.058 29.9882 243.181 30.5802 243.181 31.2689V40.4203H246.935V31.2689C246.935 30.5802 247.058 29.9882 247.307 29.4893C247.557 28.9904 247.91 28.6107 248.368 28.3426C248.826 28.0559 249.354 27.9107 249.946 27.9107C250.574 27.9107 251.11 28.0559 251.549 28.3426C251.988 28.6107 252.335 28.9941 252.58 29.4893C252.829 29.9882 252.952 30.5802 252.952 31.2689V40.4203H256.707V30.3829C256.707 29.2175 256.458 28.1937 255.963 27.315C255.468 26.4178 254.779 25.7178 253.897 25.2226C253.038 24.7238 252.052 24.478 250.943 24.478C249.7 24.478 248.602 24.7945 247.646 25.4237C247.032 25.8183 246.515 26.3433 246.098 26.9986C245.756 26.4103 245.279 25.904 244.665 25.4833C243.69 24.8131 242.563 24.478 241.283 24.478C240.118 24.478 239.106 24.7535 238.243 25.3083C237.681 25.6694 237.242 26.1571 236.925 26.764V24.8206L236.933 24.8168Z" fill="white"/>
<path d="M263.367 40.4204H259.72V24.9658H263.367V40.4204Z" fill="white"/>
<path d="M266.669 24.9622V40.4167H270.39V31.3547C270.39 30.6734 270.524 30.0851 270.788 29.5937C271.052 29.1022 271.421 28.7225 271.897 28.4581C272.37 28.1752 272.909 28.0337 273.516 28.0337C274.122 28.0337 274.68 28.1752 275.134 28.4581C275.607 28.7225 275.975 29.1022 276.243 29.5937C276.508 30.0851 276.642 30.6734 276.642 31.3547V40.4167H280.363V30.4723C280.363 29.3182 280.117 28.3018 279.626 27.4306C279.135 26.5407 278.443 25.8483 277.553 25.3568C276.682 24.8654 275.678 24.6196 274.543 24.6196C273.408 24.6196 272.478 24.8654 271.648 25.3568C271.023 25.7217 270.528 26.2206 270.171 26.8572V24.9622H266.676H266.669Z" fill="white"/>
<path fill-rule="evenodd" clip-rule="evenodd" d="M146.651 33.9906C143.968 32.6167 140.389 32.1551 138.286 31.9987C141.148 31.7865 146.748 31.0084 149.092 28.1341C152.761 25.3865 152.587 16.0899 152.587 16.0899C152.587 16.0899 143.782 15.1182 139.939 19.504C137.55 21.883 136.809 26.0157 136.593 28.8936C136.377 26.0194 135.637 21.883 133.248 19.504C129.404 15.1145 120.6 16.0899 120.6 16.0899C120.6 16.0899 120.492 21.8868 122.252 25.6806C123.119 27.5496 124.704 29.0723 126.535 30.0106C129.218 31.3844 132.798 31.8461 134.9 32.0024C132.798 32.1588 129.218 32.6205 126.535 33.9943C124.704 34.9325 123.119 36.4552 122.252 38.3242C120.492 42.1144 120.6 47.9112 120.6 47.9112C120.6 47.9112 129.404 48.8829 133.248 44.4971C135.637 42.1181 136.377 37.9817 136.593 35.1075C136.809 37.9817 137.55 42.1181 139.939 44.4971C143.782 48.8829 152.587 47.9112 152.587 47.9112C152.587 47.9112 152.698 42.1144 150.934 38.3205C150.067 36.4515 148.482 34.9288 146.651 33.9906ZM146.945 42.1218C146.901 42.1106 142.305 40.8001 136.407 32.9183C134.677 34.2698 130.331 37.844 126.193 42.7249L126.007 42.9446L126.081 42.6654C126.092 42.617 127.439 37.8812 135.644 31.8498C134.852 30.6733 132.987 27.9666 125.791 21.5889L125.631 21.4474L125.843 21.4772C125.996 21.4996 129.694 22.0804 136.452 30.7924C136.452 30.7924 136.537 30.9116 136.694 31.12C137.646 30.4611 140.404 28.5027 146.603 21.4958L146.744 21.3358L146.715 21.548C146.692 21.7006 146.112 25.3828 137.46 32.1178C139.094 34.1804 142.473 38.1641 147.005 42.0064L147.228 42.1963L146.949 42.1218H146.945Z" fill="url(#paint0_linear_4182_1320)"/>
<defs>
<linearGradient id="paint0_linear_4182_1320" x1="121.045" y1="16.3614" x2="152.232" y2="47.4032" gradientUnits="userSpaceOnUse">
<stop offset="0.2" stop-color="#00FF85"/>
<stop offset="1" stop-color="#00E0FF"/>
</linearGradient>
</defs>
</svg>
